<svg width="500" height="500" viewBox="0 0 500 500" fill="none" xmlns="http://www.w3.org/2000/svg">
<path opacity="0.25" d="M462.955 391.899L225.026 254.401L38 362.498L96.9517 396.562L94.4674 398.013L101.118 401.924L113.566 435.755L173.889 443.163L182.74 447.619L184.008 446.894L275.929 499.997L462.955 391.899Z" fill="#D1D5DB"/>
<path d="M329.084 387.262L321.735 421.326L146.872 317.606L154.222 283.517L329.084 387.262Z" fill="#B3B3B3"/>
<path d="M162.736 278.983L154.222 283.517L329.084 387.262L337.598 382.703L162.736 278.983Z" fill="#666666"/>
<path d="M337.598 382.703L330.249 416.793L321.735 421.326L329.084 387.262L337.598 382.703Z" fill="#D1D2D3"/>
<path d="M407.548 174.953L400.173 211.426L209.24 101.619L216.615 65.1199L407.548 174.953Z" fill="#EAB308"/>
<path d="M225.776 60.224L216.615 65.1199L407.548 174.953L416.709 170.031L225.776 60.224Z" fill="#CA8A04"/>
<path d="M416.709 170.031L409.308 206.53L400.173 211.426L407.548 174.953L416.709 170.031Z" fill="#D1D2D3"/>
<path d="M416.71 301.909L409.308 338.381L218.375 228.574L225.776 192.075L416.71 301.909Z" fill="#EAB308"/>
<path d="M234.911 187.18L225.776 192.076L416.709 301.909L425.845 296.987L234.911 187.18Z" fill="#CA8A04"/>
<path d="M425.845 296.987L418.443 333.486L409.308 338.381L416.709 301.909L425.845 296.987Z" fill="#CA8A04"/>
<path d="M123.27 274.476V302.608L226.268 243.081V214.949L123.27 274.476Z" fill="#808080"/>
<path d="M220.186 211.426L226.268 214.949L123.27 274.476L117.189 270.953L220.186 211.426Z" fill="#B3B3B3"/>
<path d="M117.189 270.953V299.085L123.27 302.608V274.476L117.189 270.953Z" fill="#6D6D6D"/>
<path d="M419.634 160.732L447.427 400.422L415.079 381.667L387.363 141.589L419.634 160.732Z" fill="#666666"/>
<path d="M426.802 157.727L454.441 396.277L447.428 400.422L419.634 160.732L426.802 157.727Z" fill="#D1D2D3"/>
<path d="M394.946 138.739L426.802 157.727L419.634 160.732L387.363 141.588L394.946 138.739Z" fill="#E8E8E8"/>
<path d="M226.035 48.2046L253.648 286.625L221.325 267.767L193.842 29.1133L226.035 48.2046Z" fill="#666666"/>
<path d="M233.229 45.1997L260.713 282.584L253.648 286.625L226.035 48.2046L233.229 45.1997Z" fill="#D1D2D3"/>
<path d="M201.528 26.3156L233.229 45.1996L226.035 48.2045L193.842 29.1132L201.528 26.3156Z" fill="#E8E8E8"/>
<path d="M420.539 160.291L354.6 454.25L343.99 460.389L410.498 163.918L420.539 160.291Z" fill="#6D6D6D"/>
<path d="M410.498 163.918L343.99 460.39L311.228 441.894L377.814 145.008L410.498 163.918Z" fill="#D1D2D3"/>
<path d="M387.854 141.407L420.539 160.291L410.498 163.918L377.813 145.008L387.854 141.407Z" fill="#E8E8E8"/>
<path d="M216.511 51.5979L149.537 350.168L116.878 331.258L183.827 32.7139L216.511 51.5979Z" fill="#D1D2D3"/>
<path d="M226.526 47.9972L160.148 344.003L149.537 350.168L216.511 51.5979L226.526 47.9972Z" fill="#6D6D6D"/>
<path d="M193.868 29.1132L226.527 47.9972L216.511 51.5979L183.827 32.7138L193.868 29.1132Z" fill="#E8E8E8"/>
<path d="M226.216 49.4219L230.072 83.0713L219.979 77.2687L226.216 49.4219Z" fill="#AAAAAA"/>
<path d="M355.532 408.167V436.299L458.529 376.771V348.64L355.532 408.167Z" fill="#B3B3B3"/>
<path d="M452.448 345.116L458.529 348.639L355.532 408.167L349.45 404.644L452.448 345.116Z" fill="#808080"/>
<path d="M349.45 404.644V432.776L355.532 436.299V408.167L349.45 404.644Z" fill="#6D6D6D"/>
<path d="M419.892 163.115L423.541 194.355L414.121 188.941L419.892 163.115Z" fill="#AAAAAA"/>
<g opacity="0.5">
<path opacity="0.5" d="M362.727 377.03L370.93 381.719L370.154 384.905L361.717 381.46L329.007 362.628L330.016 358.172L362.727 377.03Z" fill="#E6E6E6"/>
<path opacity="0.5" d="M354.29 249.945L387.001 268.778L395.204 273.466L394.428 276.652L385.991 273.207L353.281 254.375L354.29 249.945Z" fill="#E6E6E6"/>
<path opacity="0.5" d="M160.148 138.247L192.885 157.079L201.01 161.768L200.312 164.928L191.849 161.509L159.139 142.78L160.148 138.247Z" fill="#E6E6E6"/>
<path opacity="0.5" d="M135.874 246.5L168.584 265.306L176.736 270.021L176.037 273.181L167.575 269.736L134.89 250.904L135.874 246.5Z" fill="#E6E6E6"/>
</g>
<path d="M161.131 43.516L434.514 200.779L425.664 206.038L152.281 48.7745L161.131 43.516Z" fill="#CA8A04"/>
<path d="M434.514 200.779L422.739 278.958L413.889 284.216L425.664 206.038L434.514 200.779Z" fill="#CA8A04"/>
<path d="M152.281 48.7745L425.664 206.038L413.889 284.216L140.532 126.979L152.281 48.7745Z" fill="#FACC15"/>
<path d="M413.32 283.905L379.962 264.71L370.904 174.513L404.262 193.707L413.32 283.905Z" fill="white"/>
<path d="M341.868 242.796L308.511 223.601L299.453 133.429L332.811 152.624L341.868 242.796Z" fill="white"/>
<path d="M270.417 201.686L237.06 182.491L228.002 92.3191L261.36 111.514L270.417 201.686Z" fill="white"/>
<path d="M189.908 70.4043L198.966 160.602L165.608 141.407L156.551 51.2354L189.908 70.4043Z" fill="white"/>
<path d="M299.453 133.429L320.674 135.268L353.074 153.919L332.811 152.624L299.453 133.429Z" fill="white"/>
<path d="M370.904 174.513L392.099 176.378L424.525 195.029L404.262 193.707L370.904 174.513Z" fill="white"/>
<path d="M228.002 92.3191L249.222 94.1842L281.623 112.835L261.359 111.514L228.002 92.3191Z" fill="white"/>
<path d="M156.551 51.2354L177.771 53.0745L210.172 71.7254L189.908 70.4043L156.551 51.2354Z" fill="white"/>
<path d="M141.386 154.385L414.769 311.623L405.918 316.881L132.535 159.618L141.386 154.385Z" fill="#CA8A04"/>
<path d="M414.768 311.623L402.994 389.827L394.143 395.086L405.892 316.882L414.768 311.623Z" fill="#CA8A04"/>
<path d="M132.535 159.618L405.918 316.881L394.143 395.086L120.76 237.822L132.535 159.618Z" fill="#FACC15"/>
<path d="M393.574 394.749L360.19 375.554L351.133 285.382L384.516 304.577L393.574 394.749Z" fill="white"/>
<path d="M322.123 353.639L288.739 334.47L279.682 244.272L313.065 263.467L322.123 353.639Z" fill="white"/>
<path d="M250.671 312.555L217.288 293.36L208.256 203.188L241.614 222.357L250.671 312.555Z" fill="white"/>
<path d="M170.163 181.274L179.22 271.446L145.863 252.251L136.805 162.079L170.163 181.274Z" fill="white"/>
<path d="M279.682 244.272L300.902 246.137L333.328 264.788L313.065 263.467L279.682 244.272Z" fill="white"/>
<path d="M351.133 285.382L372.353 287.221L404.805 305.898L384.516 304.577L351.133 285.382Z" fill="white"/>
<path d="M208.256 203.188L229.451 205.028L261.877 223.679L241.614 222.357L208.256 203.188Z" fill="white"/>
<path d="M136.805 162.079L158 163.944L190.426 182.569L170.163 181.274L136.805 162.079Z" fill="white"/>
<path d="M449.342 365.141C450.61 364.39 451.645 365.011 451.645 366.488C451.645 367.964 450.61 369.752 449.342 370.503C448.074 371.228 447.039 370.633 447.039 369.156C447.013 367.679 448.048 365.892 449.342 365.141Z" fill="#6D6D6D"/>
<path d="M361.561 415.343C362.83 414.618 363.865 415.213 363.865 416.69C363.865 418.167 362.83 419.954 361.561 420.705C360.293 421.43 359.258 420.835 359.258 419.358C359.258 417.882 360.293 416.068 361.561 415.343Z" fill="#6D6D6D"/>
<path d="M408.842 150.81L407.419 162.131L382.265 147.598L408.842 149.334V150.81Z" fill="#CCCCCC"/>
<path d="M388.45 112.835C390.287 112.68 397.559 112.732 399.422 112.809C401.234 112.887 403.252 113.509 405.374 114.726C413.164 119.233 419.504 130.191 419.504 139.231C419.504 145.397 416.554 149.049 412.18 149.308C411.559 149.334 410.291 149.36 408.842 149.36V150.836C408.842 151.095 408.764 151.406 408.583 151.717C407.962 152.805 406.435 153.686 405.167 153.686C404.287 153.686 403.77 153.271 403.77 152.624V149.334C402.89 149.334 402.139 149.308 401.725 149.308C399.862 149.282 397.792 148.66 395.566 147.391C387.777 142.884 381.436 131.926 381.436 122.886C381.411 116.85 384.231 113.224 388.45 112.835Z" fill="#CECECE"/>
<path d="M409.541 148.013C412.543 146.951 414.458 143.713 414.458 138.817C414.458 130.217 408.583 119.778 401.311 115.477C399.345 114.312 398.284 113.612 399.396 113.638C401.078 113.716 402.942 114.286 404.934 115.477C412.18 119.778 418.081 130.217 418.081 138.817C418.081 144.697 415.338 148.168 411.275 148.402C410.24 148.479 408.946 148.246 409.541 148.013Z" fill="#EAEAEA"/>
<path d="M394.712 116.747C401.544 120.684 407.082 130.295 407.082 138.195C407.082 146.096 401.544 149.282 394.712 145.345C387.88 141.407 382.342 131.797 382.342 123.896C382.342 115.996 387.88 112.783 394.712 116.747Z" fill="#CA8A04"/>
<path d="M393.418 123.067C397.533 125.45 400.871 131.227 400.871 135.993C400.871 140.76 397.533 142.676 393.418 140.293C389.304 137.91 385.965 132.134 385.965 127.367C385.965 122.627 389.304 120.684 393.418 123.067Z" fill="#FACC15"/>
<path d="M394.712 116.747C387.88 112.809 382.342 115.995 382.342 123.896C382.342 131.797 387.88 141.407 394.712 145.345C401.544 149.282 407.082 146.096 407.082 138.195C407.082 130.294 401.544 120.684 394.712 116.747ZM394.712 144.412C388.32 140.734 383.145 131.745 383.145 124.362C383.145 116.98 388.32 114.001 394.712 117.679C401.104 121.358 406.28 130.346 406.28 137.729C406.28 145.111 401.104 148.09 394.712 144.412Z" fill="#808080"/>
<path d="M214.079 38.0761L212.656 49.3962L187.502 34.864L214.079 36.5996V38.0761Z" fill="#CCCCCC"/>
<path d="M193.712 0.100644C195.55 -0.05478 202.822 -0.00297193 204.685 0.0747402C206.497 0.152452 208.515 0.774149 210.637 1.99164C218.427 6.49894 224.767 17.4564 224.767 26.4969C224.767 32.662 221.817 36.3145 217.443 36.5735C216.822 36.5994 215.554 36.6253 214.105 36.6253V38.1019C214.105 38.3609 214.027 38.6718 213.846 38.9826C213.225 40.0706 211.698 40.9513 210.43 40.9513C209.55 40.9513 209.059 40.5369 209.033 39.8893V36.5994C208.153 36.5994 207.402 36.5735 206.988 36.5735C205.125 36.5476 203.055 35.9259 200.829 34.6566C193.014 30.1493 186.699 19.1919 186.699 10.1514C186.648 4.11577 189.494 0.489205 193.712 0.100644Z" fill="#CECECE"/>
<path d="M214.804 35.2784C217.806 34.1905 219.721 30.9784 219.721 26.0825C219.721 17.4824 213.846 7.04303 206.574 2.74296C204.607 1.57728 203.546 0.877867 204.659 0.903772C206.341 0.981484 208.205 1.55137 210.197 2.74296C217.443 7.04303 223.344 17.4824 223.344 26.0825C223.344 31.9627 220.601 35.4339 216.538 35.667C215.502 35.7447 214.208 35.5116 214.804 35.2784Z" fill="#EAEAEA"/>
<path d="M199.975 4.01223C206.807 7.94965 212.345 17.56 212.345 25.4608C212.345 33.3615 206.807 36.5477 199.975 32.6103C193.143 28.6729 187.605 19.0625 187.605 11.1617C187.605 3.26102 193.143 0.0489175 199.975 4.01223Z" fill="#CA8A04"/>
<path d="M198.681 10.3329C202.796 12.7161 206.134 18.4927 206.134 23.259C206.134 28.0254 202.796 29.9423 198.681 27.5591C194.566 25.1759 191.228 19.3993 191.228 14.633C191.228 9.89254 194.566 7.94974 198.681 10.3329Z" fill="#FACC15"/>
<path d="M199.975 4.01186C193.143 0.0744417 187.605 3.26064 187.605 11.1614C187.605 19.0621 193.143 28.6466 199.975 32.6099C206.807 36.5473 212.345 33.3611 212.345 25.4604C212.345 17.5597 206.807 7.94927 199.975 4.01186ZM199.975 31.6774C193.583 27.999 188.407 19.0103 188.407 11.6276C188.407 4.24499 193.583 1.26603 199.975 4.9444C206.367 8.62277 211.543 17.6115 211.543 24.9941C211.543 32.3768 206.367 35.3557 199.975 31.6774Z" fill="#808080"/>
<path d="M190.477 438.967V443.164L106.035 394.386L106.087 390.216L190.477 438.967Z" fill="#EAB308"/>
<path d="M208.903 428.32V432.517L190.477 443.163V438.967L208.903 428.32Z" fill="#CA8A04"/>
<path d="M124.512 379.569L208.903 428.32L190.477 438.967L106.087 390.216L124.512 379.569Z" fill="#FDE047"/>
<path d="M159.526 322.839L154.35 324.627L191.719 432.595L196.559 429.797L159.526 322.839Z" fill="#FACC15"/>
<path d="M154.351 324.601L191.719 432.595L116.982 389.387L154.351 324.601Z" fill="#FDE047"/>
<path d="M120.346 388.195L153.522 330.662L186.699 426.533L120.346 388.195ZM125.703 386.745L179.582 417.881L152.642 340.04L125.703 386.745Z" fill="#EF4444"/>
<path d="M151.711 386.278L149.822 385.19C149.408 379.984 148.942 374.57 148.424 368.923C147.881 363.276 147.622 360.012 147.622 359.079C147.622 357.991 147.907 357.266 148.502 356.877C149.071 356.489 149.822 356.566 150.728 357.084C151.633 357.603 152.384 358.406 152.953 359.468C153.523 360.53 153.833 361.592 153.833 362.654C153.833 363.586 153.574 366.565 153.057 371.591C152.513 376.616 152.073 381.512 151.711 386.278Z" fill="#B91C1C"/>
<path d="M148.399 390.527C149.046 390.138 149.822 390.216 150.728 390.734C151.633 391.252 152.41 392.081 153.057 393.221C153.704 394.36 154.04 395.448 154.04 396.485C154.04 397.521 153.704 398.22 153.057 398.583C152.41 398.945 151.633 398.868 150.728 398.35C149.822 397.832 149.046 397.003 148.399 395.889C147.752 394.775 147.415 393.687 147.415 392.651C147.415 391.615 147.726 390.889 148.399 390.527Z" fill="#B91C1C"/>
<path d="M191.72 432.595L185.871 436.325L110.849 392.962L116.982 389.387L191.72 432.595Z" fill="#B3B3B3"/>
<path opacity="0.25" d="M346.5 372.679L340.056 430.963L318.655 446.091L311.228 441.894L313.22 310.871L346.5 372.679Z" fill="#4E263E"/>
<path d="M250.18 282.791L306.958 315.327L333.794 378.3L327.868 430.962L290.835 457.307L234.057 424.771L207.247 361.799L213.147 309.162L250.18 282.791Z" fill="#EF4444"/>
<path d="M217.754 313.98L212.293 362.524L236.982 420.523L289.179 450.442L323.287 426.17L328.747 377.626L304.059 319.653L251.862 289.734L217.754 313.98ZM220.341 316.829L252.69 293.801L302.403 322.295L325.823 377.289L320.673 423.243L288.325 446.272L238.612 417.777L215.192 362.783L220.341 316.829Z" fill="white"/>
<path d="M256.442 278.31L250.18 282.791L306.958 315.327L313.22 310.871L256.442 278.31Z" fill="#EF4444"/>
<path d="M313.22 310.871L306.958 315.327L333.794 378.3L340.056 373.818L313.22 310.871Z" fill="#DC2626"/>
<path d="M340.056 373.818L334.13 426.481L327.867 430.963L333.794 378.3L340.056 373.818Z" fill="#B91C1C"/>
<path d="M428.717 239.221L433.556 280.952L406.306 306.494L403.123 278.025L413.889 284.216L422.739 278.958L428.717 239.221Z" fill="#AAAAAA"/>
<path d="M441.734 351.308L411.844 353.639L413.474 367.653L441.734 351.308Z" fill="#AAAAAA"/>
<path d="M241.899 185.289L243.218 196.505L211.077 178.605L209.705 166.767L241.899 185.289Z" fill="#AAAAAA"/>
</svg>
